<?xml version="1.0" encoding="UTF-8" standalone="no"?>
<svg
   xmlns:dc="http://purl.org/dc/elements/1.1/"
   xmlns:cc="http://creativecommons.org/ns#"
   xmlns:rdf="http://www.w3.org/1999/02/22-rdf-syntax-ns#"
   xmlns:svg="http://www.w3.org/2000/svg"
   xmlns="http://www.w3.org/2000/svg"
   viewBox="0 0 1587.2 1122.24"
   height="1122.24"
   width="1587.2"
   xml:space="preserve"
   id="svg2"
   version="1.1"><metadata
     id="metadata8"><rdf:RDF><cc:Work
         rdf:about=""><dc:format>image/svg+xml</dc:format><dc:type
           rdf:resource="http://purl.org/dc/dcmitype/StillImage" /></cc:Work></rdf:RDF></metadata><defs
     id="defs6"><clipPath
       id="clipPath20"
       clipPathUnits="userSpaceOnUse"><path
         id="path18"
         d="M 0,0 V 841.67999 H 1190.4 V 0 Z" /></clipPath></defs><g
     transform="matrix(1.3333333,0,0,-1.3333333,0,1122.24)"
     id="g10"><g
       transform="matrix(1,0,0,-1,0,841.67999)"
       id="g12"><g
         id="g14"><g
           clip-path="url(#clipPath20)"
           id="g16"><path
             id="path22"
             style="fill:none;stroke:#000000;stroke-width:0.29763779;stroke-linecap:round;stroke-linejoin:round;stroke-miterlimit:10;stroke-dasharray:none;stroke-opacity:1"
             d="M 1189.9081,841 V 0.33938708 H 0.49199032 V 841" /><g
             id="g24"><path
               id="path26"
               style="fill:#ffffff;fill-opacity:1;fill-rule:nonzero;stroke:none"
               d="m 892.97021,186.20389 c 0.0688,-0.87746 -0.94531,-2.71718 -2.27258,-3.84133 -1.01092,-0.85623 -2.11975,-1.63601 -3.28503,-2.26432 -4.99506,-2.69329 -10.44611,-3.73746 -16.03046,-4.1644 -2.25152,-0.17215 -4.52234,-0.15346 -6.78296,-0.11995 -0.94409,0.014 -1.62634,-0.20357 -2.16772,-1.00357 -0.69635,-1.02899 -1.67206,-1.77335 -2.73297,-2.41028 -1.63092,-0.97908 -3.35297,-1.7437 -5.17347,-2.29898 -2.92352,-0.89176 -5.92132,-1.35846 -8.95953,-1.58991 -33.24268,-0.0843 -34.35937,-0.19215 -35.46326,-0.13267 -1.99536,0.1075 -3.9848,0.3286 -5.97577,0.51149 -0.54248,0.0498 -0.92749,-0.096 -1.13232,-0.6534 -0.66113,-1.79849 -1.98682,-3.01083 -3.58466,-3.96542 -2.64746,-1.58159 -5.55328,-2.4382 -8.5476,-3.06619 -3.21973,-0.67527 -6.47534,-0.6978 -9.7442,-0.70617 -55.88337,-0.009 -59.17176,0.47377 -62.40455,1.35947 -2.66229,0.72936 -5.20092,1.78693 -7.35266,3.54533 -0.77899,0.63657 -1.45514,0.82197 -2.41632,0.61857 -4.40283,-0.93171 -8.85363,-1.28725 -13.35968,-1.11733 -3.94702,0.14884 -7.83203,0.63965 -11.64636,1.6597 -3.14032,0.83978 -6.11536,2.07588 -8.77917,3.95612 -0.80762,0.56999 -1.5401,1.29289 -2.16846,2.05926 -0.99561,1.21422 -1.57837,2.6124 -1.16846,4.23462 0.17035,0.6745 0.39868,1.33656 0.63715,1.99101 0.19867,0.54527 0.13165,0.86235 -0.39893,1.05753 -0.41235,0.15169 -0.86224,0.21216 -1.30066,0.28027 -3.1748,0.49335 -6.2334,1.36531 -9.09692,2.84175 -1.3277,0.68453 -2.53485,1.54798 -3.47138,2.73729 -1.37976,1.75215 -1.51641,3.55322 -0.17553,5.31803 0.70196,0.92398 1.64868,1.70346 2.60046,2.3874 1.76441,1.2679 3.78748,2.03183 5.87323,2.60072 4.73334,1.29102 9.55438,1.60614 14.4408,1.32819 3.84784,-0.21889 7.58014,-0.90666 11.15423,-2.36995 0.68366,-0.27992 1.20032,-0.10063 1.68524,0.42825 1.03742,1.13144 2.27021,2.01445 3.61042,2.75963 2.91748,1.62218 6.06762,2.58676 9.31036,3.26435 3.96826,0.82917 7.97882,1.18374 12.04163,1.12481 3.05511,-0.0443 6.07,-0.36538 61.57806,-0.90342 3.66858,-0.65937 7.22479,-1.69697 10.51221,-3.50855 0.58307,-0.32132 1.09594,-0.30588 1.67608,-0.003 0.72223,0.37718 1.46198,0.73591 2.22608,1.01529 3.97156,1.45205 8.09826,2.09796 12.30658,2.26388 2.52533,0.0996 5.04132,-0.0653 39.67889,-0.4192 3.58087,-0.50646 7.0708,-1.31589 10.29627,-3.04111 0.40466,-0.21642 0.90545,-0.31868 1.36871,-0.3434 0.58691,-0.0313 1.19739,9.6e-4 1.7677,0.13405 0.63599,0.14839 1.13672,-0.0499 1.69733,-0.28865 1.35998,-0.57926 2.71692,-1.21492 4.13751,-1.59374 4.69372,-1.25155 9.38531,-1.15146 14.04401,0.27422 0.44274,0.13551 0.98034,0.24095 1.40332,0.11781 3.40832,-0.99209 6.67877,-2.29846 9.32965,-4.76042 1.31524,-1.22153 2.14111,-2.73251 2.21569,-5.30377 z" /></g><g
             id="g28"><path
               id="path30"
               style="fill:#ffffff;fill-opacity:1;fill-rule:nonzero;stroke:none"
               d="m 71.015907,440.52762 c 0.108635,-1.38373 -1.490646,-4.28488 -3.583725,-6.05759 -1.594223,-1.35025 -3.342727,-2.57992 -5.180328,-3.57074 -7.87701,-4.24716 -16.473072,-5.8938 -25.279232,-6.56708 -3.550716,-0.27145 -7.131662,-0.242 -10.696488,-0.18917 -1.488786,0.0221 -2.564668,-0.32099 -3.418409,-1.58255 -1.098129,-1.62268 -2.636707,-2.79651 -4.309805,-3.80091 -2.571851,-1.54394 -5.287416,-2.74972 -8.15825,-3.62539 -4.610313,-1.40625 -9.337742,-2.14222 -14.1288298,-2.50718 -52.4221222,-0.13299 -54.1831652,-0.30304 -55.9238652,-0.20925 -3.146583,0.16952 -6.28376,0.51821 -9.423515,0.80661 -0.855454,0.0786 -1.462601,-0.15143 -1.785675,-1.0304 -1.042488,-2.83612 -3.133042,-4.74796 -5.652802,-6.25327 -4.174873,-2.49408 -8.757278,-3.84494 -13.479118,-4.83526 -5.077377,-1.06485 -10.211265,-1.10037 -15.366195,-1.11356 -88.12549,-0.0136 -93.3111,0.7471 -98.40912,2.1438 -4.19821,1.15015 -8.20155,2.81787 -11.59479,5.59082 -1.22839,1.00385 -2.29464,1.29621 -3.81032,0.97547 -6.94311,-1.46927 -13.96183,-2.02994 -21.06765,-1.762 -6.22428,0.23474 -12.3507,1.00873 -18.36574,2.61728 -4.95215,1.32431 -9.64365,3.27356 -13.84448,6.23862 -1.27344,0.89883 -2.42856,2.03882 -3.4195,3.24734 -1.57007,1.9148 -2.48892,4.11966 -1.84262,6.67783 0.26871,1.06366 0.62885,2.10766 1.00482,3.13971 0.31324,0.85986 0.20758,1.35989 -0.62906,1.66766 -0.65026,0.23923 -1.35983,0.33454 -2.05111,0.44199 -5.00647,0.77801 -9.82974,2.15304 -14.34543,4.48129 -2.09369,1.0795 -3.99728,2.4411 -5.47421,4.31662 -2.17582,2.76303 -2.39133,5.60324 -0.27686,8.38629 1.10706,1.45703 2.59998,2.68625 4.10086,3.7648 2.78235,1.99942 5.97266,3.2041 9.26178,4.10123 7.46423,2.03586 15.0669,2.53281 22.77249,2.09445 6.06787,-0.34515 11.95354,-1.42972 17.58966,-3.73727 1.07822,-0.44144 1.89287,-0.15869 2.6576,0.67532 1.63601,1.78424 3.57995,3.1767 5.69342,4.35181 4.60081,2.5581 9.56836,4.07925 14.68206,5.14773 6.2578,1.30756 12.58225,1.8667 18.98903,1.77378 4.81784,-0.0699 9.5721,-0.57618 97.10578,-1.42469 5.78515,-1.03976 11.393178,-2.67599 16.57723,-5.5328 0.919494,-0.50672 1.728309,-0.48233 2.643104,-0.005 1.138932,0.59479 2.305512,1.16049 3.510498,1.60107 6.262886,2.2898 12.770493,3.30838 19.406838,3.57004 3.9823,0.15698 7.949997,-0.10306 62.5718512,-0.66107 5.6467781,-0.79868 11.1503128,-2.0751 16.2367398,-4.79568 0.638049,-0.34131 1.427872,-0.50254 2.158324,-0.54154 0.925608,-0.0494 1.888166,0.002 2.787582,0.21137 1.002964,0.23407 1.792551,-0.0786 2.676598,-0.45517 2.14465,-0.91346 4.284452,-1.91584 6.524696,-2.51325 7.401776,-1.97363 14.800228,-1.81579 22.146664,0.43244 0.698322,0.21371 1.546059,0.37997 2.213043,0.18579 5.374779,-1.56452 10.532109,-3.62458 14.712418,-7.50696 2.074104,-1.9263 3.376419,-4.30905 3.494041,-8.3638 z" /></g><g
             id="g32"><path
               id="path34"
               style="fill:#ffffff;fill-opacity:1;fill-rule:nonzero;stroke:none"
               d="m 777.75879,262.99429 c 0.13226,-1.68438 -1.81452,-5.21597 -4.36243,-7.3739 -1.94067,-1.64364 -4.06909,-3.14053 -6.30603,-4.34666 -9.58868,-5.17005 -20.05267,-7.17449 -30.7724,-7.99405 -4.32226,-0.33046 -8.68133,-0.29459 -13.02081,-0.23029 -1.81232,0.0269 -3.12195,-0.39077 -4.16119,-1.92645 -1.3368,-1.9753 -3.20966,-3.40417 -5.24634,-4.62683 -3.13068,-1.87946 -6.43634,-3.34725 -9.93097,-4.41319 -5.61218,-1.71183 -11.36682,-2.60772 -17.19904,-3.05199 -2.12494,-0.16187 -4.26867,-0.36888 -6.38763,-0.25472 -3.83032,0.20636 -7.64917,0.63082 -11.47119,0.98188 -1.04139,0.0956 -1.78046,-0.18433 -2.17371,-1.25429 -1.26904,-3.45241 -3.8139,-5.77966 -6.88116,-7.61209 -5.08204,-3.03606 -10.66022,-4.68044 -16.40815,-5.88594 -6.18066,-1.29624 -12.43011,-1.33949 -18.7052,-1.35556 -6.46716,-0.0165 -12.7796,0.90944 -18.98541,2.60963 -5.11047,1.4001 -9.98376,3.43024 -14.11432,6.80571 -1.4953,1.22199 -2.79321,1.57788 -4.6383,1.18743 -8.45185,-1.78853 -16.99567,-2.47104 -25.64557,-2.14486 -7.57685,0.28574 -15.03455,1.22791 -22.35663,3.18601 -6.02826,1.61206 -11.7392,3.98491 -16.85284,7.59425 -1.55018,1.09415 -2.9563,2.48184 -4.1626,3.95299 -1.9112,2.33087 -3.02967,5.01483 -2.24298,8.12889 0.32708,1.29479 0.7655,2.56569 1.2232,3.82199 0.38123,1.04672 0.25269,1.6554 -0.76581,2.03005 -0.7915,0.29118 -1.65533,0.40725 -2.49676,0.53801 -6.09439,0.94708 -11.96573,2.62092 -17.46265,5.45506 -2.5487,1.31409 -4.86593,2.97156 -6.66379,5.25461 -2.64859,3.36346 -2.91095,6.82083 -0.337,10.20861 1.34759,1.77366 3.16489,3.26996 4.99197,4.58292 3.3869,2.43387 7.27048,3.90033 11.27433,4.99237 9.08618,2.4783 18.34088,3.08322 27.72094,2.54962 7.38636,-0.42016 14.55097,-1.74038 21.41181,-4.54937 1.3125,-0.53739 2.3042,-0.19318 3.2351,0.82205 1.99152,2.17193 4.35785,3.867 6.93061,5.29745 5.60052,3.11399 11.64752,4.96564 17.87249,6.26633 7.61756,1.59171 15.31629,2.27237 23.1153,2.15921 5.86475,-0.0851 11.65204,-0.70139 17.3988,-1.73425 7.0423,-1.26572 13.8689,-3.25754 20.17945,-6.73508 1.11926,-0.61679 2.10388,-0.58716 3.21747,-0.006 1.38635,0.72406 2.80645,1.41265 4.27331,1.94894 7.62378,2.78741 15.54547,4.02731 23.6239,4.34586 4.84766,0.1911 9.67749,-0.12543 14.48017,-0.80475 6.87384,-0.9722 13.5733,-2.526 19.76495,-5.83777 0.77673,-0.41544 1.73822,-0.61176 2.62738,-0.65918 1.12677,-0.0601 2.29846,0.002 3.39331,0.25732 1.22089,0.28488 2.18207,-0.0958 3.25824,-0.55414 2.61066,-1.11193 5.21545,-2.33215 7.94251,-3.05935 9.01013,-2.4025 18.01629,-2.21036 26.95904,0.52636 0.85004,0.26017 1.88202,0.46256 2.69397,0.22623 6.54266,-1.90448 12.82068,-4.4122 17.90942,-9.13827 2.52478,-2.34485 4.11011,-5.24536 4.25324,-10.18122 z" /></g><g
             id="g36"><path
               id="path38"
               style="fill:#ffffff;fill-opacity:1;fill-rule:nonzero;stroke:none"
               d="m 825.58698,323.57654 c 3.69549,0.11673 7.26702,-0.60193 10.71502,-1.75311 1.92945,-0.6442 3.80866,-1.63538 5.48316,-2.79761 2.27588,-1.57956 2.35363,-3.82895 0.38354,-5.75949 -0.69678,-0.68283 -1.58447,-1.21222 -2.46149,-1.66297 -3.86041,-1.98431 -8.00842,-3.11364 -12.31671,-3.06155 -2.43493,0.0294 -3.99212,-0.98636 -5.54962,-2.53574 -1.10211,-1.09631 -2.26208,-2.20154 -3.57843,-3.0043 -7.50146,-4.57483 -15.81024,-6.66965 -24.43732,-7.72192 -5.15618,-0.62897 -10.31872,-0.926 -15.51763,-0.55582 -2.32477,0.16556 -2.71369,-0.23834 -3.63196,-2.42755 -0.46497,-1.1084 -0.90784,-2.26267 -1.58905,-3.23657 -1.82257,-2.60575 -3.69757,-2.89194 -6.35871,-1.13587 -0.17816,0.11756 -0.34204,0.25723 -0.52282,0.37024 -1.56775,0.98026 -2.61603,0.8913 -4.02393,-0.32547 -2.56512,-2.21704 -5.47699,-3.78302 -8.6969,-4.86298 -7.66663,-2.57131 -15.49786,-2.89004 -23.40369,-1.67507 -4.52099,0.69482 -8.87506,2.03314 -12.83978,4.44842 -2.68841,1.6377 -4.59332,3.79501 -5.08124,7.00067 -0.17486,1.14948 -0.8468,1.70087 -1.97662,1.89502 -1.19037,0.20456 -2.4093,0.41055 -3.5238,0.84946 -1.63806,0.6452 -3.40155,1.24457 -4.7298,2.33038 -1.43939,1.17685 -2.82446,2.06439 -4.69312,2.1951 -0.84594,0.0592 -1.68133,0.2937 -2.51709,0.46964 -5.11328,1.07644 -10.08007,2.57568 -14.55725,5.35455 -1.00909,0.62631 -1.97863,1.42349 -2.72937,2.33679 -1.62841,1.98096 -1.56353,3.92398 0.2262,5.73377 1.08789,1.10009 2.33319,2.12225 3.67761,2.87713 4.57709,2.57022 9.58069,3.97714 14.70361,4.95151 6.80219,1.29376 13.67121,1.71225 20.59687,1.64514 7.8136,-0.0758 15.47412,-1.12756 22.96539,-3.26568 1.96729,-0.56144 3.37006,-0.33564 4.79663,1.07339 2.79035,2.7561 6.34033,4.37311 9.85809,5.86548 8.41871,3.57141 17.32789,5.05609 26.42255,5.17303 4.60767,0.0592 9.2428,-0.28384 13.83051,-0.77313 8.58014,-0.91507 16.73858,-3.28467 24.21191,-7.75006 0.63074,-0.37689 1.46033,-0.58926 2.19659,-0.58679 1.55658,0.005 3.11249,0.20309 4.66865,0.32196 z" /></g><path
             id="path40"
             style="fill:none;stroke:#b5b5b5;stroke-width:0.12755907;stroke-linecap:round;stroke-linejoin:round;stroke-miterlimit:10;stroke-dasharray:none;stroke-opacity:1"
             d="m 892.97021,186.20389 c 0.0688,-0.87746 -0.94531,-2.71718 -2.27258,-3.84133 -1.01092,-0.85623 -2.11975,-1.63601 -3.28503,-2.26432 -4.99506,-2.69329 -10.44611,-3.73746 -16.03046,-4.1644 -2.25152,-0.17215 -4.52234,-0.15346 -6.78296,-0.11995 -0.94409,0.014 -1.62634,-0.20357 -2.16772,-1.00357 -0.69635,-1.02899 -1.67206,-1.77335 -2.73297,-2.41028 -1.63092,-0.97908 -3.35297,-1.7437 -5.17347,-2.29898 -2.92352,-0.89176 -5.92132,-1.35846 -8.95953,-1.58991 -33.24268,-0.0843 -34.35937,-0.19215 -35.46326,-0.13267 -1.99536,0.1075 -3.9848,0.3286 -5.97577,0.51149 -0.54248,0.0498 -0.92749,-0.096 -1.13232,-0.6534 -0.66113,-1.79849 -1.98682,-3.01083 -3.58466,-3.96542 -2.64746,-1.58159 -5.55328,-2.4382 -8.5476,-3.06619 -3.21973,-0.67527 -6.47534,-0.6978 -9.7442,-0.70617 -55.88337,-0.009 -59.17176,0.47377 -62.40455,1.35947 -2.66229,0.72936 -5.20092,1.78693 -7.35266,3.54533 -0.77899,0.63657 -1.45514,0.82197 -2.41632,0.61857 -4.40283,-0.93171 -8.85363,-1.28725 -13.35968,-1.11733 -3.94702,0.14884 -7.83203,0.63965 -11.64636,1.6597 -3.14032,0.83978 -6.11536,2.07588 -8.77917,3.95612 -0.80762,0.56999 -1.5401,1.29289 -2.16846,2.05926 -0.99561,1.21422 -1.57837,2.6124 -1.16846,4.23462 0.17035,0.6745 0.39868,1.33656 0.63715,1.99101 0.19867,0.54527 0.13165,0.86235 -0.39893,1.05753 -0.41235,0.15169 -0.86224,0.21216 -1.30066,0.28027 -3.1748,0.49335 -6.2334,1.36531 -9.09692,2.84175 -1.3277,0.68453 -2.53485,1.54798 -3.47138,2.73729 -1.37976,1.75215 -1.51641,3.55322 -0.17553,5.31803 0.70196,0.92398 1.64868,1.70346 2.60046,2.3874 1.76441,1.2679 3.78748,2.03183 5.87323,2.60072 4.73334,1.29102 9.55438,1.60614 14.4408,1.32819 3.84784,-0.21889 7.58014,-0.90666 11.15423,-2.36995 0.68366,-0.27992 1.20032,-0.10063 1.68524,0.42825 1.03742,1.13144 2.27021,2.01445 3.61042,2.75963 2.91748,1.62218 6.06762,2.58676 9.31036,3.26435 3.96826,0.82917 7.97882,1.18374 12.04163,1.12481 3.05511,-0.0443 6.07,-0.36538 61.57806,-0.90342 3.66858,-0.65937 7.22479,-1.69697 10.51221,-3.50855 0.58307,-0.32132 1.09594,-0.30588 1.67608,-0.003 0.72223,0.37718 1.46198,0.73591 2.22608,1.01529 3.97156,1.45205 8.09826,2.09796 12.30658,2.26388 2.52533,0.0996 5.04132,-0.0653 39.67889,-0.4192 3.58087,-0.50646 7.0708,-1.31589 10.29627,-3.04111 0.40466,-0.21642 0.90545,-0.31868 1.36871,-0.3434 0.58691,-0.0313 1.19739,9.6e-4 1.7677,0.13405 0.63599,0.14839 1.13672,-0.0499 1.69733,-0.28865 1.35998,-0.57926 2.71692,-1.21492 4.13751,-1.59374 4.69372,-1.25155 9.38531,-1.15146 14.04401,0.27422 0.44274,0.13551 0.98034,0.24095 1.40332,0.11781 3.40832,-0.99209 6.67877,-2.29846 9.32965,-4.76042 1.31524,-1.22153 2.14111,-2.73251 2.21569,-5.30377 z" /><path
             id="path42"
             style="fill:none;stroke:#b5b5b5;stroke-width:0.12755907;stroke-linecap:round;stroke-linejoin:round;stroke-miterlimit:10;stroke-dasharray:none;stroke-opacity:1"
             d="m 71.015907,440.52762 c 0.108635,-1.38373 -1.490646,-4.28488 -3.583725,-6.05759 -1.594223,-1.35025 -3.342727,-2.57992 -5.180328,-3.57074 -7.87701,-4.24716 -16.473072,-5.8938 -25.279232,-6.56708 -3.550716,-0.27145 -7.131662,-0.242 -10.696488,-0.18917 -1.488786,0.0221 -2.564668,-0.32099 -3.418409,-1.58255 -1.098129,-1.62268 -2.636707,-2.79651 -4.309805,-3.80091 -2.571851,-1.54394 -5.287416,-2.74972 -8.15825,-3.62539 -4.610313,-1.40625 -9.337742,-2.14222 -14.1288298,-2.50718 -52.4221222,-0.13299 -54.1831652,-0.30304 -55.9238652,-0.20925 -3.146583,0.16952 -6.28376,0.51821 -9.423515,0.80661 -0.855454,0.0786 -1.462601,-0.15143 -1.785675,-1.0304 -1.042488,-2.83612 -3.133042,-4.74796 -5.652802,-6.25327 -4.174873,-2.49408 -8.757278,-3.84494 -13.479118,-4.83526 -5.077377,-1.06485 -10.211265,-1.10037 -15.366195,-1.11356 -88.12549,-0.0136 -93.3111,0.7471 -98.40912,2.1438 -4.19821,1.15015 -8.20155,2.81787 -11.59479,5.59082 -1.22839,1.00385 -2.29464,1.29621 -3.81032,0.97547 -6.94311,-1.46927 -13.96183,-2.02994 -21.06765,-1.762 -6.22428,0.23474 -12.3507,1.00873 -18.36574,2.61728 -4.95215,1.32431 -9.64365,3.27356 -13.84448,6.23862 -1.27344,0.89883 -2.42856,2.03882 -3.4195,3.24734 -1.57007,1.9148 -2.48892,4.11966 -1.84262,6.67783 0.26871,1.06366 0.62885,2.10766 1.00482,3.13971 0.31324,0.85986 0.20758,1.35989 -0.62906,1.66766 -0.65026,0.23923 -1.35983,0.33454 -2.05111,0.44199 -5.00647,0.77801 -9.82974,2.15304 -14.34543,4.48129 -2.09369,1.0795 -3.99728,2.4411 -5.47421,4.31662 -2.17582,2.76303 -2.39133,5.60324 -0.27686,8.38629 1.10706,1.45703 2.59998,2.68625 4.10086,3.7648 2.78235,1.99942 5.97266,3.2041 9.26178,4.10123 7.46423,2.03586 15.0669,2.53281 22.77249,2.09445 6.06787,-0.34515 11.95354,-1.42972 17.58966,-3.73727 1.07822,-0.44144 1.89287,-0.15869 2.6576,0.67532 1.63601,1.78424 3.57995,3.1767 5.69342,4.35181 4.60081,2.5581 9.56836,4.07925 14.68206,5.14773 6.2578,1.30756 12.58225,1.8667 18.98903,1.77378 4.81784,-0.0699 9.5721,-0.57618 97.10578,-1.42469 5.78515,-1.03976 11.393178,-2.67599 16.57723,-5.5328 0.919494,-0.50672 1.728309,-0.48233 2.643104,-0.005 1.138932,0.59479 2.305512,1.16049 3.510498,1.60107 6.262886,2.2898 12.770493,3.30838 19.406838,3.57004 3.9823,0.15698 7.949997,-0.10306 62.5718512,-0.66107 5.6467781,-0.79868 11.1503128,-2.0751 16.2367398,-4.79568 0.638049,-0.34131 1.427872,-0.50254 2.158324,-0.54154 0.925608,-0.0494 1.888166,0.002 2.787582,0.21137 1.002964,0.23407 1.792551,-0.0786 2.676598,-0.45517 2.14465,-0.91346 4.284452,-1.91584 6.524696,-2.51325 7.401776,-1.97363 14.800228,-1.81579 22.146664,0.43244 0.698322,0.21371 1.546059,0.37997 2.213043,0.18579 5.374779,-1.56452 10.532109,-3.62458 14.712418,-7.50696 2.074104,-1.9263 3.376419,-4.30905 3.494041,-8.3638 z" /><path
             id="path44"
             style="fill:none;stroke:#b5b5b5;stroke-width:0.12755907;stroke-linecap:round;stroke-linejoin:round;stroke-miterlimit:10;stroke-dasharray:none;stroke-opacity:1"
             d="m 777.75879,262.99429 c 0.13226,-1.68438 -1.81452,-5.21597 -4.36243,-7.3739 -1.94067,-1.64364 -4.06909,-3.14053 -6.30603,-4.34666 -9.58868,-5.17005 -20.05267,-7.17449 -30.7724,-7.99405 -4.32226,-0.33046 -8.68133,-0.29459 -13.02081,-0.23029 -1.81232,0.0269 -3.12195,-0.39077 -4.16119,-1.92645 -1.3368,-1.9753 -3.20966,-3.40417 -5.24634,-4.62683 -3.13068,-1.87946 -6.43634,-3.34725 -9.93097,-4.41319 -5.61218,-1.71183 -11.36682,-2.60772 -17.19904,-3.05199 -2.12494,-0.16187 -4.26867,-0.36888 -6.38763,-0.25472 -3.83032,0.20636 -7.64917,0.63082 -11.47119,0.98188 -1.04139,0.0956 -1.78046,-0.18433 -2.17371,-1.25429 -1.26904,-3.45241 -3.8139,-5.77966 -6.88116,-7.61209 -5.08204,-3.03606 -10.66022,-4.68044 -16.40815,-5.88594 -6.18066,-1.29624 -12.43011,-1.33949 -18.7052,-1.35556 -6.46716,-0.0165 -12.7796,0.90944 -18.98541,2.60963 -5.11047,1.4001 -9.98376,3.43024 -14.11432,6.80571 -1.4953,1.22199 -2.79321,1.57788 -4.6383,1.18743 -8.45185,-1.78853 -16.99567,-2.47104 -25.64557,-2.14486 -7.57685,0.28574 -15.03455,1.22791 -22.35663,3.18601 -6.02826,1.61206 -11.7392,3.98491 -16.85284,7.59425 -1.55018,1.09415 -2.9563,2.48184 -4.1626,3.95299 -1.9112,2.33087 -3.02967,5.01483 -2.24298,8.12889 0.32708,1.29479 0.7655,2.56569 1.2232,3.82199 0.38123,1.04672 0.25269,1.6554 -0.76581,2.03005 -0.7915,0.29118 -1.65533,0.40725 -2.49676,0.53801 -6.09439,0.94708 -11.96573,2.62092 -17.46265,5.45506 -2.5487,1.31409 -4.86593,2.97156 -6.66379,5.25461 -2.64859,3.36346 -2.91095,6.82083 -0.337,10.20861 1.34759,1.77366 3.16489,3.26996 4.99197,4.58292 3.3869,2.43387 7.27048,3.90033 11.27433,4.99237 9.08618,2.4783 18.34088,3.08322 27.72094,2.54962 7.38636,-0.42016 14.55097,-1.74038 21.41181,-4.54937 1.3125,-0.53739 2.3042,-0.19318 3.2351,0.82205 1.99152,2.17193 4.35785,3.867 6.93061,5.29745 5.60052,3.11399 11.64752,4.96564 17.87249,6.26633 7.61756,1.59171 15.31629,2.27237 23.1153,2.15921 5.86475,-0.0851 11.65204,-0.70139 17.3988,-1.73425 7.0423,-1.26572 13.8689,-3.25754 20.17945,-6.73508 1.11926,-0.61679 2.10388,-0.58716 3.21747,-0.006 1.38635,0.72406 2.80645,1.41265 4.27331,1.94894 7.62378,2.78741 15.54547,4.02731 23.6239,4.34586 4.84766,0.1911 9.67749,-0.12543 14.48017,-0.80475 6.87384,-0.9722 13.5733,-2.526 19.76495,-5.83777 0.77673,-0.41544 1.73822,-0.61176 2.62738,-0.65918 1.12677,-0.0601 2.29846,0.002 3.39331,0.25732 1.22089,0.28488 2.18207,-0.0958 3.25824,-0.55414 2.61066,-1.11193 5.21545,-2.33215 7.94251,-3.05935 9.01013,-2.4025 18.01629,-2.21036 26.95904,0.52636 0.85004,0.26017 1.88202,0.46256 2.69397,0.22623 6.54266,-1.90448 12.82068,-4.4122 17.90942,-9.13827 2.52478,-2.34485 4.11011,-5.24536 4.25324,-10.18122 z" /><path
             id="path46"
             style="fill:none;stroke:#b5b5b5;stroke-width:0.12755907;stroke-linecap:round;stroke-linejoin:round;stroke-miterlimit:10;stroke-dasharray:none;stroke-opacity:1"
             d="m 825.58698,323.57654 c -1.55616,-0.11887 -3.11207,-0.31677 -4.66865,-0.32196 -0.73626,-0.002 -1.56585,0.2099 -2.19659,0.58679 -7.47333,4.46539 -15.63177,6.83499 -24.21191,7.75006 -4.58771,0.48929 -9.22284,0.83237 -13.83051,0.77313 -9.09466,-0.11694 -18.00384,-1.60162 -26.42255,-5.17303 -3.51776,-1.49237 -7.06774,-3.10938 -9.85809,-5.86548 -1.42657,-1.40903 -2.82934,-1.63483 -4.79663,-1.07339 -7.49127,2.13812 -15.15179,3.18988 -22.96539,3.26568 -6.92566,0.0671 -13.79468,-0.35138 -20.59687,-1.64514 -5.12292,-0.97437 -10.12652,-2.38129 -14.70361,-4.95151 -1.34442,-0.75488 -2.58972,-1.77704 -3.67761,-2.87713 -1.78973,-1.80979 -1.85461,-3.75281 -0.2262,-5.73377 0.75074,-0.9133 1.72028,-1.71048 2.72937,-2.33679 4.47718,-2.77887 9.44397,-4.27811 14.55725,-5.35455 0.83576,-0.17594 1.67115,-0.41044 2.51709,-0.46964 1.86866,-0.13071 3.25373,-1.01825 4.69312,-2.1951 1.32825,-1.08581 3.09174,-1.68518 4.7298,-2.33038 1.1145,-0.43891 2.33343,-0.6449 3.5238,-0.84946 1.12982,-0.19415 1.80176,-0.74554 1.97662,-1.89502 0.48792,-3.20566 2.39283,-5.36297 5.08124,-7.00067 3.96472,-2.41528 8.31879,-3.7536 12.83978,-4.44842 7.90583,-1.21497 15.73706,-0.89624 23.40369,1.67507 3.21991,1.07996 6.13178,2.64594 8.6969,4.86298 1.4079,1.21677 2.45618,1.30573 4.02393,0.32547 0.18078,-0.11301 0.34466,-0.25268 0.52282,-0.37024 2.66114,-1.75607 4.53614,-1.46988 6.35871,1.13587 0.68121,0.9739 1.12408,2.12817 1.58905,3.23657 0.91827,2.18921 1.30719,2.59311 3.63196,2.42755 5.19891,-0.37018 10.36145,-0.0732 15.51763,0.55582 8.62708,1.05227 16.93586,3.14709 24.43732,7.72192 1.31635,0.80276 2.47632,1.90799 3.57843,3.0043 1.5575,1.54938 3.11469,2.56516 5.54962,2.53574 4.30829,-0.0521 8.4563,1.07724 12.31671,3.06155 0.87702,0.45075 1.76471,0.98014 2.46149,1.66297 1.97009,1.93054 1.89234,4.17993 -0.38354,5.75949 -1.6745,1.16223 -3.55371,2.15341 -5.48316,2.79761 -3.448,1.15118 -7.01953,1.86984 -10.71502,1.75311 z" /><g
             id="g48"><path
               id="path50"
               style="fill:#ffffff;fill-opacity:1;fill-rule:nonzero;stroke:none"
               d="m 620.79498,353.57205 c 0.0689,-0.87747 -0.94525,-2.71719 -2.27258,-3.84134 -1.01093,-0.85623 -2.11969,-1.63598 -3.28497,-2.26431 -4.99506,-2.69327 -10.44617,-3.73746 -16.03046,-4.1644 -2.25165,-0.17215 -4.5224,-0.15347 -6.78296,-0.11996 -0.94415,0.014 -1.6264,-0.20355 -2.16772,-1.00357 -0.69641,-1.02899 -1.67206,-1.77332 -2.73304,-2.41028 -1.63085,-0.97907 -3.35296,-1.74368 -5.1734,-2.29898 -2.92358,-0.89173 -5.92138,-1.35843 -8.95953,-1.58988 -33.24274,-0.0843 -34.35944,-0.19217 -35.46332,-0.13269 -1.99536,0.10749 -3.98474,0.32859 -5.97571,0.51151 -0.54248,0.0498 -0.92749,-0.096 -1.13238,-0.65341 -0.66107,-1.7985 -1.98676,-3.01087 -3.5846,-3.96543 -2.64746,-1.5816 -5.55334,-2.4382 -8.5476,-3.06619 -3.21973,-0.67526 -6.47535,-0.69778 -9.74421,-0.70618 -55.88342,-0.009 -59.17178,0.47376 -62.4046,1.35947 -2.66223,0.72934 -5.20089,1.78693 -7.35263,3.54535 -0.77899,0.63657 -1.45514,0.82193 -2.41626,0.61856 -4.40289,-0.93173 -8.8537,-1.28723 -13.35974,-1.11731 -3.94702,0.1488 -7.832,0.63962 -11.64636,1.6597 -3.14029,0.83975 -6.11533,2.07587 -8.77924,3.95608 -0.80752,0.57001 -1.54004,1.29291 -2.16839,2.05927 -0.99564,1.21423 -1.57834,2.61243 -1.16849,4.23462 0.17038,0.6745 0.39874,1.33655 0.63718,1.99103 0.19867,0.54525 0.13165,0.86233 -0.3989,1.05752 -0.41232,0.1517 -0.8623,0.21213 -1.30069,0.28024 -3.17477,0.49338 -6.23337,1.36536 -9.09689,2.84177 -1.3277,0.68454 -2.53482,1.54801 -3.47141,2.73731 -1.37976,1.75213 -1.51642,3.55322 -0.17556,5.31802 0.70202,0.92395 1.64871,1.70346 2.60052,2.38739 1.76437,1.26791 3.78741,2.03183 5.8732,2.60071 4.73331,1.29104 9.55441,1.60614 14.4408,1.32821 3.84787,-0.21887 7.58013,-0.90664 11.1542,-2.36993 0.68372,-0.27997 1.20032,-0.10065 1.68527,0.42822 1.03745,1.13144 2.27014,2.01447 3.61042,2.75962 2.91751,1.62219 6.06759,2.58679 9.31039,3.26437 3.96826,0.82916 7.97882,1.18375 12.04156,1.12482 3.05518,-0.0444 6.06998,-0.36539 61.57807,-0.90345 3.66858,-0.65936 7.22485,-1.69696 10.51221,-3.50854 0.58313,-0.32132 1.096,-0.30588 1.67608,-0.003 0.72229,0.37717 1.46204,0.7359 2.22614,1.01526 3.97149,1.45209 8.0982,2.09799 12.30658,2.26391 2.52527,0.0995 5.04132,-0.0654 39.67889,-0.41918 3.58081,-0.50647 7.0708,-1.31592 10.29627,-3.04114 0.4046,-0.2164 0.90545,-0.31867 1.36865,-0.34339 0.58697,-0.0313 1.19739,9.5e-4 1.7677,0.13404 0.63605,0.1484 1.13672,-0.0499 1.69732,-0.28864 1.35999,-0.57928 2.71698,-1.21493 4.13758,-1.59372 4.69372,-1.25158 9.38531,-1.15149 14.04394,0.27417 0.44281,0.13553 0.98035,0.24097 1.40338,0.11783 3.40833,-0.9921 6.67872,-2.29846 9.32966,-4.76041 1.31524,-1.22152 2.14105,-2.73251 2.21563,-5.30377 z" /></g><path
             id="path52"
             style="fill:none;stroke:#b5b5b5;stroke-width:0.12755907;stroke-linecap:round;stroke-linejoin:round;stroke-miterlimit:10;stroke-dasharray:none;stroke-opacity:1"
             d="m 620.79498,353.57205 c 0.0689,-0.87747 -0.94525,-2.71719 -2.27258,-3.84134 -1.01093,-0.85623 -2.11969,-1.63598 -3.28497,-2.26431 -4.99506,-2.69327 -10.44617,-3.73746 -16.03046,-4.1644 -2.25165,-0.17215 -4.5224,-0.15347 -6.78296,-0.11996 -0.94415,0.014 -1.6264,-0.20355 -2.16772,-1.00357 -0.69641,-1.02899 -1.67206,-1.77332 -2.73304,-2.41028 -1.63085,-0.97907 -3.35296,-1.74368 -5.1734,-2.29898 -2.92358,-0.89173 -5.92138,-1.35843 -8.95953,-1.58988 -33.24274,-0.0843 -34.35944,-0.19217 -35.46332,-0.13269 -1.99536,0.10749 -3.98474,0.32859 -5.97571,0.51151 -0.54248,0.0498 -0.92749,-0.096 -1.13238,-0.65341 -0.66107,-1.7985 -1.98676,-3.01087 -3.5846,-3.96543 -2.64746,-1.5816 -5.55334,-2.4382 -8.5476,-3.06619 -3.21973,-0.67526 -6.47535,-0.69778 -9.74421,-0.70618 -55.88342,-0.009 -59.17178,0.47376 -62.4046,1.35947 -2.66223,0.72934 -5.20089,1.78693 -7.35263,3.54535 -0.77899,0.63657 -1.45514,0.82193 -2.41626,0.61856 -4.40289,-0.93173 -8.8537,-1.28723 -13.35974,-1.11731 -3.94702,0.1488 -7.832,0.63962 -11.64636,1.6597 -3.14029,0.83975 -6.11533,2.07587 -8.77924,3.95608 -0.80752,0.57001 -1.54004,1.29291 -2.16839,2.05927 -0.99564,1.21423 -1.57834,2.61243 -1.16849,4.23462 0.17038,0.6745 0.39874,1.33655 0.63718,1.99103 0.19867,0.54525 0.13165,0.86233 -0.3989,1.05752 -0.41232,0.1517 -0.8623,0.21213 -1.30069,0.28024 -3.17477,0.49338 -6.23337,1.36536 -9.09689,2.84177 -1.3277,0.68454 -2.53482,1.54801 -3.47141,2.73731 -1.37976,1.75213 -1.51642,3.55322 -0.17556,5.31802 0.70202,0.92395 1.64871,1.70346 2.60052,2.38739 1.76437,1.26791 3.78741,2.03183 5.8732,2.60071 4.73331,1.29104 9.55441,1.60614 14.4408,1.32821 3.84787,-0.21887 7.58013,-0.90664 11.1542,-2.36993 0.68372,-0.27997 1.20032,-0.10065 1.68527,0.42822 1.03745,1.13144 2.27014,2.01447 3.61042,2.75962 2.91751,1.62219 6.06759,2.58679 9.31039,3.26437 3.96826,0.82916 7.97882,1.18375 12.04156,1.12482 3.05518,-0.0444 6.06998,-0.36539 61.57807,-0.90345 3.66858,-0.65936 7.22485,-1.69696 10.51221,-3.50854 0.58313,-0.32132 1.096,-0.30588 1.67608,-0.003 0.72229,0.37717 1.46204,0.7359 2.22614,1.01526 3.97149,1.45209 8.0982,2.09799 12.30658,2.26391 2.52527,0.0995 5.04132,-0.0654 39.67889,-0.41918 3.58081,-0.50647 7.0708,-1.31592 10.29627,-3.04114 0.4046,-0.2164 0.90545,-0.31867 1.36865,-0.34339 0.58697,-0.0313 1.19739,9.5e-4 1.7677,0.13404 0.63605,0.1484 1.13672,-0.0499 1.69732,-0.28864 1.35999,-0.57928 2.71698,-1.21493 4.13758,-1.59372 4.69372,-1.25158 9.38531,-1.15149 14.04394,0.27417 0.44281,0.13553 0.98035,0.24097 1.40338,0.11783 3.40833,-0.9921 6.67872,-2.29846 9.32966,-4.76041 1.31524,-1.22152 2.14105,-2.73251 2.21563,-5.30377 z" /></g></g></g></g></svg>