<?xml version="1.0" standalone="no"?>
<!DOCTYPE svg PUBLIC "-//W3C//DTD SVG 20010904//EN"
 "http://www.w3.org/TR/2001/REC-SVG-20010904/DTD/svg10.dtd">
<svg version="1.0" xmlns="http://www.w3.org/2000/svg"
 width="1000.000000pt" height="1250.000000pt" viewBox="0 0 1000.000000 1250.000000"
 preserveAspectRatio="xMidYMid meet">

<g transform="translate(0.000000,1250.000000) scale(0.100000,-0.100000)"
fill="#000000" stroke="none">
<path d="M1991 8814 c-321 -84 -587 -156 -591 -161 -6 -7 -121 -252 -186 -401
l-24 -52 286 -310 c157 -171 290 -310 296 -310 10 0 -75 96 -307 345 -249 267
-267 290 -234 310 5 4 232 -104 502 -240 511 -257 988 -487 1382 -668 127 -58
281 -130 344 -160 l114 -55 96 35 c173 64 136 69 388 -47 123 -56 227 -99 233
-95 6 4 10 76 10 189 l0 184 111 38 c92 32 113 43 121 64 6 15 7 120 2 269
l-7 243 -291 141 c-353 171 -1070 529 -1411 705 l-250 128 -584 -152z m-201
-375 c201 -103 386 -198 412 -210 35 -18 90 -71 207 -199 158 -173 168 -189
114 -190 -12 0 -239 109 -505 241 l-483 242 -145 -36 c-80 -20 -146 -34 -148
-33 -1 2 30 72 69 157 39 85 78 169 86 187 7 18 17 32 21 30 4 -2 171 -87 372
-189z m1790 -1089 c8 -5 11 -10 5 -10 -5 0 -17 5 -25 10 -8 5 -10 10 -5 10 6
0 17 -5 25 -10z"/>
<path d="M1230 8214 c0 -10 105 -129 220 -249 58 -60 165 -177 239 -260 102
-114 149 -159 196 -186 89 -52 480 -256 625 -326 69 -33 233 -116 365 -184
234 -122 359 -183 578 -280 l107 -48 0 213 0 213 -47 21 c-80 34 -782 362
-1038 485 -132 63 -460 225 -730 361 -269 135 -495 246 -502 246 -7 0 -13 -3
-13 -6z"/>
<path d="M5124 7477 c-144 -57 -286 -114 -315 -128 -30 -15 -128 -55 -219 -89
-91 -35 -169 -67 -174 -71 -6 -5 3 -36 20 -76 42 -97 40 -100 -5 -8 -22 44
-37 83 -35 86 2 4 36 20 74 35 39 15 68 29 65 32 -4 5 -215 102 -220 102 -7 0
-5 -318 1 -334 4 -9 29 -28 57 -43 51 -26 127 -55 127 -49 0 2 -7 20 -16 41
-8 20 -13 39 -11 41 3 3 157 -334 185 -405 4 -10 -6 -8 -34 7 -44 24 -301 140
-534 242 -85 37 -236 104 -334 149 -99 44 -181 81 -183 81 -2 0 -3 -95 -3
-211 l0 -210 58 -25 c155 -69 342 -157 339 -160 -3 -3 -359 155 -426 190 -33
17 -100 46 -106 46 -3 0 -5 -126 -5 -280 0 -154 -2 -280 -4 -280 -3 0 -77 33
-165 74 -152 71 -162 74 -200 64 -41 -10 -41 -10 -104 48 -35 33 -60 60 -57
62 4 1 120 -49 260 -113 139 -63 255 -115 257 -115 2 0 3 124 3 275 l0 275
-102 47 c-57 25 -218 105 -358 176 -140 72 -363 184 -495 250 -222 110 -512
261 -595 310 -32 18 -31 16 17 -34 79 -81 64 -84 -19 -4 -140 137 628 -678
981 -1040 l176 -180 210 -112 c400 -212 1663 -835 2251 -1111 434 -203 657
-305 669 -305 6 0 228 76 495 168 267 92 493 169 502 172 12 4 21 -5 33 -33
31 -74 34 -70 -128 -123 -81 -26 -149 -50 -152 -53 -3 -3 33 -84 79 -181 l85
-176 162 55 c89 30 163 53 164 52 16 -18 45 -92 38 -98 -4 -4 -125 -46 -268
-95 -143 -48 -271 -93 -285 -98 -14 -6 -28 -11 -32 -12 -5 -2 -10 -4 -13 -5
-3 -1 -9 -4 -15 -5 -5 -1 -12 -4 -15 -5 -3 -1 -9 -4 -15 -5 -5 -1 -12 -4 -15
-5 -3 -1 -9 -4 -15 -5 -5 -1 -12 -4 -15 -5 -3 -1 -8 -3 -12 -5 -5 -1 -21 -7
-38 -14 -35 -15 -103 -40 -110 -41 -3 0 -7 -1 -10 -1 -3 -1 -9 -3 -15 -4 -5
-1 -12 -4 -15 -5 -3 -1 -9 -4 -15 -5 -5 -1 -11 -3 -12 -5 -2 -1 -10 -3 -18 -5
-8 -1 -34 -8 -57 -14 -41 -11 -44 -10 -335 124 -332 154 -322 149 -635 296
-128 60 -235 109 -238 109 -3 0 -5 -135 -5 -300 0 -165 1 -300 3 -300 1 0 117
38 257 85 l255 85 291 -45 c175 -27 310 -53 338 -64 41 -18 49 -28 86 -102 23
-44 39 -83 36 -86 -2 -2 -14 1 -26 7 -14 8 -65 12 -134 11 -105 -2 -116 0
-179 29 -66 30 -72 31 -165 24 -94 -6 -99 -5 -164 25 -39 18 -84 31 -107 31
-22 0 -110 -25 -207 -60 l-167 -59 -31 25 c-80 66 -1337 1298 -1296 1270 14
-9 273 -259 575 -555 303 -296 567 -553 588 -571 l37 -32 -2 297 -3 298 -210
99 c-115 55 -387 187 -604 294 -216 106 -397 191 -402 188 -5 -3 -66 52 -136
122 -71 70 -114 116 -98 102 32 -28 1089 -550 1311 -648 72 -32 190 -88 260
-123 159 -79 339 -164 735 -345 l306 -140 154 55 c85 30 158 58 162 62 6 6
-141 332 -157 348 -2 2 -81 -24 -175 -58 l-171 -62 -352 168 c-194 93 -501
239 -683 325 -181 87 -507 246 -723 354 -216 108 -397 194 -402 191 -4 -2 -72
-25 -151 -49 l-144 -45 -239 245 c-131 134 -248 249 -260 256 -64 33 1001
-1031 1864 -1863 909 -875 2376 -2225 2408 -2216 26 7 1006 387 1010 392 15
14 -37 70 -231 252 -662 619 -837 787 -830 793 4 4 107 42 228 85 121 43 225
82 232 87 8 6 -23 80 -109 256 -142 292 -478 990 -569 1182 -35 74 -68 138
-73 142 -5 3 -16 2 -25 -2 -56 -30 -173 -74 -536 -204 -226 -80 -415 -146
-420 -146 -6 1 -104 195 -220 431 -156 321 -216 434 -235 445 -22 13 -23 14
-3 9 15 -4 187 53 509 169 267 97 489 174 493 172 3 -2 60 -117 126 -255 65
-138 120 -249 122 -247 2 2 -58 133 -133 292 -298 630 -367 780 -370 799 -3
26 -262 577 -277 591 -15 15 -766 355 -792 359 -11 2 -138 -42 -281 -98z
m-2704 -563 c260 -272 470 -497 468 -500 -5 -4 -926 958 -941 982 -4 8 -6 14
-4 14 3 0 217 -223 477 -496z m3065 -64 c3 -5 2 -10 -4 -10 -5 0 -13 5 -16 10
-3 6 -2 10 4 10 5 0 13 -4 16 -10z m55 -25 c14 -8 21 -14 15 -14 -5 0 -21 6
-35 14 -14 8 -20 14 -15 14 6 0 21 -6 35 -14z m80 -35 c8 -5 11 -10 5 -10 -5
0 -17 5 -25 10 -8 5 -10 10 -5 10 6 0 17 -5 25 -10z m70 -30 c8 -5 11 -10 5
-10 -5 0 -17 5 -25 10 -8 5 -10 10 -5 10 6 0 17 -5 25 -10z m80 -35 c14 -8 21
-14 15 -14 -5 0 -21 6 -35 14 -14 8 -20 14 -15 14 6 0 21 -6 35 -14z m80 -35
c8 -5 11 -10 5 -10 -5 0 -17 5 -25 10 -8 5 -10 10 -5 10 6 0 17 -5 25 -10z
m70 -30 c8 -5 11 -10 5 -10 -5 0 -17 5 -25 10 -8 5 -10 10 -5 10 6 0 17 -5 25
-10z m70 -30 c8 -5 11 -10 5 -10 -5 0 -17 5 -25 10 -8 5 -10 10 -5 10 6 0 17
-5 25 -10z m70 -30 c8 -5 11 -10 5 -10 -5 0 -17 5 -25 10 -8 5 -10 10 -5 10 6
0 17 -5 25 -10z m537 -274 c68 -148 121 -272 116 -276 -4 -4 -230 -81 -501
-169 -454 -149 -496 -161 -527 -151 -19 6 -195 80 -392 165 l-358 154 -112
263 c-61 145 -110 264 -109 266 3 3 224 -87 520 -212 l229 -97 123 42 c68 23
124 45 124 49 0 4 -17 14 -37 22 -21 7 -33 17 -28 20 10 6 159 -52 151 -59 -2
-3 -14 0 -25 7 -12 6 -21 7 -21 3 0 -11 190 -425 199 -436 11 -11 464 146 469
162 3 8 0 11 -7 7 -6 -4 -19 -2 -28 4 -16 9 -15 10 5 5 12 -4 22 -2 22 2 0 5
-42 103 -94 218 l-93 210 26 7 c14 3 64 20 111 36 47 17 91 30 99 29 7 -1 69
-123 138 -271z m-467 244 c8 -5 11 -10 5 -10 -5 0 -17 5 -25 10 -8 5 -10 10
-5 10 6 0 17 -5 25 -10z m70 -30 c8 -5 11 -10 5 -10 -5 0 -17 5 -25 10 -8 5
-10 10 -5 10 6 0 17 -5 25 -10z m-1381 -290 c43 -96 78 -176 76 -178 -7 -8
-33 12 -29 23 3 7 -31 95 -75 194 -45 99 -81 184 -80 188 1 11 17 -23 108
-227z m-769 200 c19 -11 31 -19 25 -19 -5 0 -26 8 -45 19 -19 11 -30 19 -25
19 6 0 26 -8 45 -19z m130 -56 c33 -15 59 -29 57 -31 -2 -2 -33 10 -68 26 -80
37 -72 40 11 5z m1680 -74 c8 -5 11 -10 5 -10 -5 0 -17 5 -25 10 -8 5 -10 10
-5 10 6 0 17 -5 25 -10z m70 -30 c8 -5 11 -10 5 -10 -5 0 -17 5 -25 10 -8 5
-10 10 -5 10 6 0 17 -5 25 -10z m-1495 -18 c-3 -3 -11 0 -18 7 -9 10 -8 11 6
5 10 -3 15 -9 12 -12z m89 -32 c36 -16 66 -31 66 -34 0 -5 -130 51 -139 60
-10 10 11 2 73 -26z m1476 20 c8 -5 11 -10 5 -10 -5 0 -17 5 -25 10 -8 5 -10
10 -5 10 6 0 17 -5 25 -10z m70 -30 c8 -5 11 -10 5 -10 -5 0 -17 5 -25 10 -8
5 -10 10 -5 10 6 0 17 -5 25 -10z m70 -30 c8 -5 11 -10 5 -10 -5 0 -17 5 -25
10 -8 5 -10 10 -5 10 6 0 17 -5 25 -10z m-1419 -46 c33 -15 58 -29 56 -31 -2
-2 -33 10 -68 26 -35 17 -60 30 -55 31 5 0 35 -12 67 -26z m1489 16 c8 -5 11
-10 5 -10 -5 0 -17 5 -25 10 -8 5 -10 10 -5 10 6 0 17 -5 25 -10z m70 -30 c8
-5 11 -10 5 -10 -5 0 -17 5 -25 10 -8 5 -10 10 -5 10 6 0 17 -5 25 -10z m60
-25 c14 -8 21 -14 15 -14 -5 0 -21 6 -35 14 -14 8 -20 14 -15 14 6 0 21 -6 35
-14z m-10 -1565 c19 -11 31 -19 25 -19 -5 0 -26 8 -45 19 -19 11 -30 19 -25
19 6 0 26 -8 45 -19z m130 -60 c19 -11 31 -19 25 -19 -5 0 -26 8 -45 19 -19
11 -30 19 -25 19 6 0 26 -8 45 -19z m130 -60 c19 -11 31 -19 25 -19 -5 0 -26
8 -45 19 -19 11 -30 19 -25 19 6 0 26 -8 45 -19z m597 -186 c-3 -3 -12 -4 -19
-1 -8 3 -5 6 6 6 11 1 17 -2 13 -5z m-587 -114 c14 -10 64 -58 112 -107 l88
-88 -113 2 c-61 1 -118 2 -124 2 -13 1 -113 190 -113 212 0 17 120 0 150 -21z
m-1112 -221 c64 -30 71 -31 167 -26 94 5 103 4 163 -24 59 -27 74 -29 177 -29
98 0 120 -3 169 -25 49 -22 71 -25 167 -25 96 0 117 -3 172 -27 34 -14 74 -25
89 -24 24 1 31 -6 53 -49 14 -27 25 -55 25 -62 0 -8 -113 -56 -292 -122 -161
-60 -301 -114 -311 -121 -16 -11 -11 -18 50 -75 38 -35 176 -165 308 -289 132
-124 412 -384 621 -578 335 -309 403 -377 392 -389 -11 -10 -2048 1872 -2048
1893 0 10 39 -1 98 -28z m1382 -29 c24 -1 -27 -25 -135 -63 l-101 -35 -21 40
-22 39 31 13 c26 11 116 13 248 6z m3 -189 c4 -4 -31 -23 -78 -40 -48 -18 -88
-31 -89 -30 -2 2 -15 27 -30 56 l-26 52 63 3 c58 3 136 -17 160 -41z m1612
-1302 c4 -6 5 -12 2 -15 -4 -4 -686 -269 -925 -359 l-62 -24 -24 48 -25 48
502 155 c276 86 507 156 514 157 6 1 15 -4 18 -10z"/>
<path d="M6351 6549 c-47 -16 -89 -33 -94 -38 -4 -4 35 -102 88 -220 53 -117
95 -217 93 -223 -5 -15 -490 -181 -498 -171 -4 5 -51 106 -105 226 -55 119
-104 217 -110 217 -25 0 -245 -84 -245 -94 0 -20 225 -498 236 -503 12 -5 963
304 977 317 13 11 -225 520 -243 519 -8 0 -53 -14 -99 -30z"/>
<path d="M4756 6502 c13 -31 61 -144 107 -251 l82 -194 350 -149 c434 -185
398 -171 392 -156 -3 7 -58 125 -123 262 -81 172 -124 251 -138 257 -225 94
-656 273 -673 280 l-22 8 25 -57z"/>
<path d="M4540 7465 c0 -8 -43 -29 -105 -51 -57 -21 -102 -40 -100 -42 2 -2
55 -28 118 -57 l114 -52 113 43 c62 24 115 45 118 48 2 3 -6 10 -19 15 -13 5
-72 32 -131 59 -72 34 -108 46 -108 37z"/>
<path d="M3702 7148 c-62 -22 -110 -44 -105 -48 8 -8 474 -219 826 -375 109
-48 200 -86 202 -83 3 3 -18 57 -46 121 -48 107 -54 117 -90 131 -20 8 -177
78 -346 156 -170 77 -314 140 -319 139 -5 0 -60 -18 -122 -41z"/>
<path d="M4310 6990 c8 -5 20 -10 25 -10 6 0 3 5 -5 10 -8 5 -19 10 -25 10 -5
0 -3 -5 5 -10z"/>
<path d="M3098 6189 c18 -19 29 -39 25 -43 -5 -4 -1 -6 7 -4 8 2 14 -3 12 -10
-1 -8 1 -11 6 -8 5 3 21 -7 35 -22 15 -15 205 -116 436 -232 266 -132 406
-207 398 -213 -7 -5 -4 -6 9 -3 14 5 169 -67 520 -240 274 -135 540 -264 589
-286 50 -22 252 -118 450 -213 198 -95 413 -198 477 -228 l117 -55 -21 41
c-19 40 -28 46 -162 107 -871 398 -2781 1337 -2916 1433 -8 6 0 -5 18 -24z"/>
<path d="M6240 5850 c-256 -92 -465 -172 -465 -177 0 -19 410 -842 420 -843 5
0 218 75 472 168 286 103 462 172 461 179 -8 33 -404 843 -413 842 -5 0 -219
-76 -475 -169z"/>
<path d="M6991 5500 c14 -31 19 -36 19 -24 0 6 -7 19 -16 30 -14 18 -14 18 -3
-6z"/>
<path d="M3915 5390 c46 -49 83 -69 470 -260 592 -292 1994 -953 2004 -944 12
11 -25 63 -57 79 -20 9 -201 93 -402 185 -201 92 -448 209 -549 260 -102 50
-232 112 -290 137 -58 24 -353 166 -656 315 -302 149 -554 273 -560 276 -5 3
13 -19 40 -48z"/>
<path d="M7051 5375 c0 -5 11 -30 24 -55 13 -25 24 -40 24 -35 0 6 -11 30 -24
55 -13 25 -24 41 -24 35z"/>
<path d="M6670 4885 c-261 -90 -483 -164 -492 -165 -23 0 -23 -12 2 -61 17
-32 24 -38 38 -30 19 10 312 121 319 121 6 0 183 -365 183 -378 0 -5 -76 -36
-169 -67 l-169 -57 15 -37 14 -37 497 169 c273 92 501 172 505 176 8 8 -17 71
-28 71 -2 0 -74 -25 -159 -55 l-156 -54 -15 22 c-14 22 -175 354 -175 362 0 2
66 25 148 50 81 26 151 50 156 55 10 10 -14 80 -29 79 -5 0 -224 -74 -485
-164z"/>
</g>
</svg>
